<?xml version="1.0" encoding="utf-8"?>
<svg version="1.1" xmlns="http://www.w3.org/2000/svg" x="0px" y="0px" viewBox="0 0 512 512" xml:space="preserve">
<style type="text/css">
  .background { fill: var(--icon-bg); }
</style>
<path class="background" d="M423.9,12.7C369.1-2.9,321.5,1,256,0c-55.4,0.3-90.9-0.7-133.9,5.1C105,7.7,90.9,11,76.2,17.2
	C-14.2,57.3,3,167.1,0,256c2.1,75.1-8.6,165.6,41.4,215.5c51,49.4,140.1,38.2,214.6,40.5c68.2-1.2,111.3,3.2,167.9-12.7
	c103.3-35,85-149.1,88.1-243.3C509.1,161.4,526.8,47.3,423.9,12.7z"/>
<g>
	<polygon fill="#9900EE" points="142.4,142.4 142.4,369.6 172.5,369.6 172.5,281.2 169.5,186.1 244.3,369.6 267.4,369.6 342.3,185.6
		339.5,281.2 339.5,369.6 369.6,369.6 369.6,142.4 330.6,142.4 255.9,327.8 181.3,142.4 	"/>
	<path fill="#9900EE" d="M56,56v400h66.7v-25H81V81h41.7V56H56z M389.3,456H456V56h-66.7v25H431v350h-41.7V456z"/>
</g>
</svg>
